<svg xmlns="http://www.w3.org/2000/svg" width="256" height="256" viewBox="0 0 100 100"><rect width="100" height="100" rx="20" fill="#3f51b5"></rect><path d="M31.10 24.89L31.10 24.89Q27.50 24.89 25.57 22.87Q23.63 20.84 23.63 17.96L23.63 17.96Q23.63 17.24 23.86 16.25Q24.08 15.26 24.44 14.54L24.44 14.54Q25.61 15.08 27.91 15.31Q30.20 15.53 33.26 15.53L33.26 15.53Q37.85 15.53 43.66 15.13Q49.46 14.72 54.77 14.27Q60.08 13.82 64.13 13.42Q68.18 13.01 69.35 13.01L69.35 13.01Q72.68 13.01 74.16 15.49Q75.65 17.96 76.37 22.10L76.37 22.10Q74.03 21.92 71.74 21.79Q69.44 21.65 67.82 21.65L67.82 21.65Q64.94 21.65 62.02 21.83Q59.09 22.01 56.12 22.37L56.12 22.37Q54.86 24.98 53.33 28.54Q51.80 32.09 50.32 35.96Q48.83 39.83 47.48 43.66Q46.13 47.48 45.14 50.54L45.14 50.54Q43.16 56.48 41.68 61.52Q40.19 66.56 39.07 70.93Q37.94 75.29 37.13 79.25Q36.32 83.21 35.69 86.99L35.69 86.99Q29.66 86.09 25.61 79.43L25.61 79.43Q26.33 76.64 27.37 73.36Q28.40 70.07 29.80 65.89Q31.19 61.70 33.08 56.39Q34.97 51.08 37.40 44.33L37.40 44.33Q38.30 41.81 39.29 39.07Q40.28 36.32 41.23 33.62Q42.17 30.92 42.94 28.40Q43.70 25.88 44.24 23.81L44.24 23.81Q40.46 24.26 37.09 24.58Q33.71 24.89 31.10 24.89Z" fill="#fff"></path></svg>